<svg width="18" height="18" viewBox="0 0 18 18" fill="none" xmlns="http://www.w3.org/2000/svg">
<path d="M9.00004 5.25C8.25836 5.25 7.53333 5.46993 6.91665 5.88199C6.29996 6.29404 5.81932 6.87971 5.53549 7.56494C5.25166 8.25016 5.1774 9.00416 5.32209 9.73159C5.46679 10.459 5.82394 11.1272 6.34839 11.6517C6.87283 12.1761 7.54102 12.5333 8.26845 12.6779C8.99588 12.8226 9.74988 12.7484 10.4351 12.4645C11.1203 12.1807 11.706 11.7001 12.118 11.0834C12.5301 10.4667 12.75 9.74168 12.75 9C12.749 8.00576 12.3536 7.05253 11.6505 6.34949C10.9475 5.64645 9.99428 5.25103 9.00004 5.25ZM9.00004 11.5C8.50558 11.5 8.02223 11.3534 7.61111 11.0787C7.19999 10.804 6.87956 10.4135 6.69034 9.95671C6.50112 9.49989 6.45161 8.99723 6.54807 8.51227C6.64454 8.02732 6.88264 7.58186 7.23227 7.23223C7.5819 6.8826 8.02736 6.6445 8.51231 6.54804C8.99726 6.45157 9.49993 6.50108 9.95675 6.6903C10.4136 6.87952 10.804 7.19995 11.0787 7.61107C11.3534 8.0222 11.5 8.50555 11.5 9C11.5 9.66304 11.2366 10.2989 10.7678 10.7678C10.299 11.2366 9.66308 11.5 9.00004 11.5ZM15.875 9.16875C15.8782 9.05625 15.8782 8.94375 15.875 8.83125L17.0407 7.375C17.1018 7.29854 17.1441 7.20879 17.1642 7.11299C17.1843 7.01719 17.1816 6.91801 17.1563 6.82344C16.9652 6.10516 16.6794 5.41551 16.3063 4.77266C16.2574 4.68853 16.1896 4.61697 16.1082 4.56366C16.0269 4.51036 15.9342 4.47679 15.8375 4.46562L13.9844 4.25937C13.9073 4.17812 13.8292 4.1 13.75 4.025L13.5313 2.16719C13.52 2.07048 13.4863 1.97773 13.4329 1.89635C13.3795 1.81497 13.3077 1.7472 13.2235 1.69844C12.5804 1.32605 11.8908 1.0405 11.1727 0.849218C11.0781 0.82406 10.9788 0.821486 10.883 0.841706C10.7872 0.861926 10.6975 0.904372 10.6211 0.965624L9.16879 2.125C9.05629 2.125 8.94379 2.125 8.83129 2.125L7.37504 0.961718C7.29858 0.9006 7.20883 0.858295 7.11303 0.838211C7.01722 0.818128 6.91804 0.820828 6.82347 0.846093C6.10531 1.03752 5.4157 1.32335 4.77269 1.69609C4.68857 1.74494 4.617 1.81275 4.5637 1.89413C4.5104 1.97551 4.47683 2.06821 4.46566 2.16484L4.25941 4.02109C4.17816 4.0987 4.10004 4.17682 4.02504 4.25547L2.16722 4.46875C2.07051 4.48 1.97777 4.51369 1.89639 4.56713C1.815 4.62057 1.74723 4.69229 1.69847 4.77656C1.32609 5.41966 1.04053 6.10925 0.849254 6.82734C0.824096 6.92197 0.821523 7.02119 0.841742 7.11699C0.861962 7.2128 0.904408 7.30251 0.965661 7.37891L2.12504 8.83125C2.12504 8.94375 2.12504 9.05625 2.12504 9.16875L0.961754 10.625C0.900636 10.7015 0.858331 10.7912 0.838248 10.887C0.818164 10.9828 0.820864 11.082 0.846129 11.1766C1.03721 11.8948 1.32306 12.5845 1.69613 13.2273C1.74498 13.3115 1.81279 13.383 1.89417 13.4363C1.97555 13.4896 2.06824 13.5232 2.16488 13.5344L4.01801 13.7406C4.09561 13.8219 4.17373 13.9 4.25238 13.975L4.46879 15.8328C4.48004 15.9295 4.51373 16.0223 4.56717 16.1036C4.62061 16.185 4.69233 16.2528 4.7766 16.3016C5.4197 16.6739 6.10929 16.9595 6.82738 17.1508C6.92201 17.1759 7.02122 17.1785 7.11703 17.1583C7.21284 17.1381 7.30255 17.0956 7.37894 17.0344L8.83129 15.875C8.94379 15.8781 9.05629 15.8781 9.16879 15.875L10.625 17.0406C10.7015 17.1017 10.7912 17.144 10.887 17.1641C10.9828 17.1842 11.082 17.1815 11.1766 17.1562C11.8949 16.9652 12.5845 16.6793 13.2274 16.3063C13.3115 16.2574 13.3831 16.1896 13.4364 16.1082C13.4897 16.0268 13.5232 15.9341 13.5344 15.8375L13.7407 13.9844C13.8219 13.9073 13.9 13.8292 13.975 13.75L15.8329 13.5313C15.9296 13.52 16.0223 13.4863 16.1037 13.4329C16.1851 13.3794 16.2528 13.3077 16.3016 13.2234C16.674 12.5803 16.9595 11.8907 17.1508 11.1727C17.176 11.078 17.1786 10.9788 17.1583 10.883C17.1381 10.7872 17.0957 10.6975 17.0344 10.6211L15.875 9.16875ZM14.6172 8.66094C14.6305 8.88678 14.6305 9.11322 14.6172 9.33906C14.6079 9.49369 14.6564 9.64626 14.7532 9.76719L15.8618 11.1523C15.7345 11.5566 15.5717 11.9488 15.375 12.3242L13.6094 12.5242C13.4557 12.5413 13.3137 12.6148 13.211 12.7305C13.0606 12.8996 12.9004 13.0598 12.7313 13.2102C12.6156 13.3129 12.5421 13.4548 12.525 13.6086L12.3289 15.3727C11.9536 15.5694 11.5614 15.7323 11.1571 15.8594L9.77113 14.7508C9.66023 14.6622 9.52246 14.614 9.3805 14.6141H9.34301C9.11716 14.6273 8.89073 14.6273 8.66488 14.6141C8.51026 14.6048 8.35769 14.6532 8.23676 14.75L6.84769 15.8594C6.44342 15.7322 6.05125 15.5693 5.67582 15.3727L5.47582 13.6094C5.45875 13.4556 5.38526 13.3136 5.26957 13.2109C5.10043 13.0606 4.94026 12.9004 4.78988 12.7312C4.68717 12.6156 4.5452 12.5421 4.39144 12.525L2.62738 12.3281C2.43065 11.9527 2.26777 11.5606 2.14066 11.1563L3.24925 9.77031C3.34606 9.64938 3.3945 9.49681 3.38519 9.34219C3.37191 9.11634 3.37191 8.88991 3.38519 8.66406C3.3945 8.50944 3.34606 8.35687 3.24925 8.23594L2.14066 6.84766C2.26787 6.44339 2.43075 6.05122 2.62738 5.67578L4.39066 5.47578C4.54442 5.45871 4.68639 5.38522 4.7891 5.26953C4.93948 5.1004 5.09965 4.94023 5.26879 4.78984C5.38494 4.68707 5.45873 4.54478 5.47582 4.39062L5.67191 2.62734C6.0473 2.43062 6.43948 2.26773 6.84379 2.14062L8.22972 3.24922C8.35066 3.34602 8.50323 3.39446 8.65785 3.38516C8.8837 3.37188 9.11013 3.37188 9.33597 3.38516C9.4906 3.39446 9.64317 3.34602 9.7641 3.24922L11.1524 2.14062C11.5567 2.26783 11.9488 2.43071 12.3243 2.62734L12.5243 4.39062C12.5413 4.54439 12.6148 4.68635 12.7305 4.78906C12.8996 4.93945 13.0598 5.09962 13.2102 5.26875C13.3129 5.38444 13.4549 5.45793 13.6086 5.475L15.3727 5.67109C15.5694 6.04649 15.7323 6.43866 15.8594 6.84297L14.7508 8.22891C14.6531 8.35086 14.6046 8.505 14.6149 8.66094H14.6172Z" fill="#5E718D"/>
</svg>
