<svg width="28" height="28" viewBox="0 0 28 28" fill="none" xmlns="http://www.w3.org/2000/svg">
<path d="M14 1C21.1797 1 27 6.8203 27 14C27 21.1797 21.1797 27 14 27C6.8203 27 1 21.1797 1 14C1 6.8203 6.8203 1 14 1Z" fill="#F2F4F7"/>
<path d="M14 1C21.1797 1 27 6.8203 27 14C27 21.1797 21.1797 27 14 27C6.8203 27 1 21.1797 1 14C1 6.8203 6.8203 1 14 1Z" stroke="white" stroke-width="2"/>
<path d="M14 2.25C20.4893 2.25 25.75 7.51065 25.75 14C25.75 20.4893 20.4893 25.75 14 25.75C7.51065 25.75 2.25 20.4893 2.25 14C2.25 7.51065 7.51065 2.25 14 2.25Z" stroke="black" stroke-opacity="0.08" stroke-width="0.5"/>
<path d="M9.97195 16.6023V10.7045H11.31V16.6023H9.97195ZM7.69212 14.3224V12.9844H13.5898V14.3224H7.69212ZM15.4467 18L19.1584 10.6534V10.5938H14.8501V9.27273H20.7947V10.6236L17.0874 18H15.4467Z" fill="#475467"/>
</svg>
